<?xml version="1.0" encoding="UTF-8" standalone="no"?>
<!-- Created with Inkscape (http://www.inkscape.org/) -->

<svg
   xmlns:dc="http://purl.org/dc/elements/1.1/"
   xmlns:cc="http://creativecommons.org/ns#"
   xmlns:rdf="http://www.w3.org/1999/02/22-rdf-syntax-ns#"
   xmlns:svg="http://www.w3.org/2000/svg"
   xmlns="http://www.w3.org/2000/svg"
   xmlns:sodipodi="http://sodipodi.sourceforge.net/DTD/sodipodi-0.dtd"
   xmlns:inkscape="http://www.inkscape.org/namespaces/inkscape"
   width="720"
   height="900"
   id="svg2"
   version="1.1"
   inkscape:version="0.48.4 r9939"
   sodipodi:docname="chess-board.svg">
  <defs
     id="defs4" />
  <sodipodi:namedview
     id="base"
     pagecolor="#ffffff"
     bordercolor="#666666"
     borderopacity="1.0"
     inkscape:pageopacity="0.0"
     inkscape:pageshadow="2"
     inkscape:zoom="0.70710678"
     inkscape:cx="164.9236"
     inkscape:cy="517.43572"
     inkscape:document-units="px"
     inkscape:current-layer="layer1"
     showgrid="false"
     inkscape:snap-bbox="true"
     inkscape:bbox-nodes="true"
     inkscape:snap-nodes="true"
     inkscape:snap-bbox-edge-midpoints="true"
     showguides="true"
     inkscape:guide-bbox="true"
     inkscape:snap-grids="true"
     inkscape:snap-page="false"
     inkscape:window-width="1920"
     inkscape:window-height="1056"
     inkscape:window-x="0"
     inkscape:window-y="24"
     inkscape:window-maximized="1"
     inkscape:object-nodes="true"
     inkscape:snap-smooth-nodes="true">
    <sodipodi:guide
       orientation="0,1"
       position="-220.71833,793.47482"
       id="guide4150" />
    <sodipodi:guide
       orientation="0,1"
       position="-261.62951,708.62201"
       id="guide4152" />
    <sodipodi:guide
       orientation="1,0"
       position="-522.9063,748.48215"
       id="guide4211" />
    <sodipodi:guide
       orientation="1,0"
       position="-566.875,748.48215"
       id="guide4213" />
    <sodipodi:guide
       orientation="1,0"
       position="-523.63467,734.02104"
       id="guide4215" />
    <sodipodi:guide
       orientation="1,0"
       position="-566.0625,734.03125"
       id="guide4217" />
    <sodipodi:guide
       orientation="1,0"
       position="-495.11065,749.65893"
       id="guide4264" />
    <sodipodi:guide
       orientation="1,0"
       position="-544.90039,763.36369"
       id="guide4284" />
    <sodipodi:guide
       orientation="1,0"
       position="-233.14383,793.47482"
       id="guide3956" />
    <sodipodi:guide
       orientation="1,0"
       position="-174.75,832"
       id="guide3960" />
  </sodipodi:namedview>
  <metadata
     id="metadata7">
    <rdf:RDF>
      <cc:Work
         rdf:about="">
        <dc:format>image/svg+xml</dc:format>
        <dc:type
           rdf:resource="http://purl.org/dc/dcmitype/StillImage" />
        <dc:title></dc:title>
      </cc:Work>
    </rdf:RDF>
  </metadata>
  <g
     inkscape:label="Layer 1"
     inkscape:groupmode="layer"
     id="layer1"
     transform="translate(0,-152.36218)">
    <rect
       style="fill:#bdbdbd;fill-opacity:1;stroke:none"
       id="rect3987"
       width="90"
       height="91.23288"
       x="-137.85713"
       y="256.1293" />
    <g
       style="fill:#e040fb;fill-opacity:1;stroke:none"
       id="g3995"
       transform="matrix(1,0,0,1.0025587,0,-91.966879)">
      <path
         id="path3999"
         style="fill:#e040fb;fill-opacity:1"
         d="m -70.35713,373.29885 c 0,12.89036 -10.073592,23.34006 -22.5,23.34006 -12.42641,0 -22.5,-10.4497 -22.5,-23.34006 0,-12.89036 10.07359,-23.34006 22.5,-23.34006 12.426408,0 22.5,10.4497 22.5,23.34006 z m 19.999991,61.29621 -42.499991,0 -42.5,0 21.24999,-26.03321 21.25001,-26.03322 21.250001,26.03322 z"
         inkscape:connector-curvature="0" />
    </g>
    <g
       style="fill:#e040fb;fill-opacity:1;stroke:none"
       id="g4005"
       transform="translate(-112.85714,0)" />
    <rect
       y="256.1293"
       x="-363.12115"
       height="91.23288"
       width="90"
       id="rect4046"
       style="fill:#bdbdbd;fill-opacity:1;stroke:none" />
    <path
       style="fill:#e040fb;fill-opacity:1;stroke:none"
       d="m -318.83439,258.88736 c -3.58647,0 -6.97286,1.39836 -9.96875,3.86415 l 0,37.08944 -6.8125,0 0,-28.37928 c -3.32236,6.30067 -5.34375,14.48345 -5.34375,23.43825 0,7.28547 1.34044,14.06545 3.625,19.73247 l 37.375,0 -0.25,-0.31673 c 2.20762,-5.60251 3.5,-12.26477 3.5,-19.41574 0,-19.8917 -9.90559,-36.01256 -22.125,-36.01256 z m -19.46875,58.15221 -1.0625,1.26693 -13.3125,15.93168 0,9.50199 34.5625,0 34.53125,0 0,-9.53366 -13.28125,-15.90001 -1.0625,-1.26693 -40.375,0 z"
       id="path4060"
       inkscape:connector-curvature="0" />
    <rect
       y="256.1293"
       x="-475.24808"
       height="91.23288"
       width="90"
       id="rect4098"
       style="fill:#bdbdbd;fill-opacity:1;stroke:none" />
    <path
       style="fill:#e040fb;fill-opacity:1;stroke:none"
       d="m -431.48223,258.88736 -0.0312,9.25265 -28.58852,28.13691 11.40417,12.09476 c 4.70572,-4.17916 9.48728,-4.90184 15.34093,-1.92633 -6.2758,6.27992 -13.52284,11.79368 -17.49679,19.86321 l 0.0624,17.43161 18.96528,0 30.99435,0 0.40617,-15.69477 c -0.8089,-6.11485 -5.10675,-9.58775 -8.84213,-13.48423 2.67088,-3.02034 5.63411,-5.7647 7.21744,-9.88424 2.08794,-4.39003 2.00165,-10.19239 0.84359,-16.7053 -1.82688,-7.17755 -7.00676,-12.35155 -11.65413,-17.74739 l -0.78111,-0.72632 0,13.42107 -2.53077,0 0,-15.82108 -2.28085,-2.17895 0,11.62107 -2.53078,0 0,-14.02108 -2.28083,-2.17895 0,11.5895 -2.49954,0 0,-12.85266 -5.71772,-0.18948 z m -2.62452,20.21058 4.03052,0 0,4.95791 -4.03052,0 0,-4.95791 z"
       id="path4127"
       inkscape:connector-curvature="0" />
    <rect
       y="347.36218"
       x="-137.85713"
       height="91.23288"
       width="90"
       id="rect4163"
       style="fill:#424242;fill-opacity:1;stroke:none" />
    <path
       id="path4167"
       style="fill:#e040fb;fill-opacity:1;stroke:none"
       d="m -70.35713,373.52001 c 0,12.92334 -10.073592,23.39978 -22.5,23.39978 -12.42641,0 -22.5,-10.47644 -22.5,-23.39978 0,-12.92334 10.07359,-23.39978 22.5,-23.39978 12.426408,0 22.5,10.47644 22.5,23.39978 z m 19.999991,61.45305 -42.499991,0 -42.5,0 21.24999,-26.09982 21.25001,-26.09983 21.250001,26.09983 z"
       inkscape:connector-curvature="0" />
    <rect
       style="fill:#424242;fill-opacity:1;stroke:none"
       id="rect4173"
       width="90"
       height="91.23288"
       x="-363.12115"
       y="347.36218" />
    <path
       inkscape:connector-curvature="0"
       id="path4175"
       d="m -318.83439,350.12024 c -3.58647,0 -6.97286,1.39836 -9.96875,3.86415 l 0,37.08944 -6.8125,0 0,-28.37928 c -3.32236,6.30067 -5.34375,14.48345 -5.34375,23.43825 0,7.28547 1.34044,14.06545 3.625,19.73247 l 37.375,0 -0.25,-0.31673 c 2.20762,-5.60251 3.5,-12.26477 3.5,-19.41574 0,-19.8917 -9.90559,-36.01256 -22.125,-36.01256 z m -19.46875,58.15221 -1.0625,1.26693 -13.3125,15.93168 0,9.50199 34.5625,0 34.53125,0 0,-9.53366 -13.28125,-15.90001 -1.0625,-1.26693 -40.375,0 z"
       style="fill:#e040fb;fill-opacity:1;stroke:none" />
    <rect
       style="fill:#424242;fill-opacity:1;stroke:none"
       id="rect4177"
       width="90"
       height="91.23288"
       x="-475.24808"
       y="347.36218" />
    <path
       inkscape:connector-curvature="0"
       id="path4179"
       d="m -431.48223,350.12024 -0.0312,9.25265 -28.58852,28.13691 11.40417,12.09476 c 4.70572,-4.17916 9.48728,-4.90184 15.34093,-1.92633 -6.2758,6.27992 -13.52284,11.79368 -17.49679,19.86321 l 0.0624,17.43161 18.96528,0 30.99435,0 0.40617,-15.69477 c -0.8089,-6.11485 -5.10675,-9.58775 -8.84213,-13.48423 2.67088,-3.02034 5.63411,-5.7647 7.21744,-9.88424 2.08794,-4.39003 2.00165,-10.19239 0.84359,-16.7053 -1.82688,-7.17755 -7.00676,-12.35155 -11.65413,-17.74739 l -0.78111,-0.72632 0,13.42107 -2.53077,0 0,-15.82108 -2.28085,-2.17895 0,11.62107 -2.53078,0 0,-14.02108 -2.28083,-2.17895 0,11.5895 -2.49954,0 0,-12.85266 -5.71772,-0.18948 z m -2.62452,20.21058 4.03052,0 0,4.95791 -4.03052,0 0,-4.95791 z"
       style="fill:#e040fb;fill-opacity:1;stroke:none" />
    <rect
       style="fill:#bdbdbd;fill-opacity:1;stroke:none"
       id="rect4181"
       width="90"
       height="91.23288"
       x="-589.90039"
       y="256.1293" />
    <path
       id="rect4208"
       style="fill:#e040fb;fill-opacity:1;stroke:none"
       d="m -544.90625,106.53125 c -2.59948,-0.0101 -6.05017,1.60386 -8.96875,3.28125 1.82015,3.06161 5.15187,5.125 8.96875,5.125 3.78299,0 7.10682,-2.01464 8.9375,-5.03125 -2.86718,-1.69506 -6.34869,-3.36492 -8.9375,-3.375 z m -10.625,4.25 c -2.32312,1.44746 -4.03125,2.71875 -4.03125,2.71875 l 3.84375,14.6875 10.8125,8.4375 10.8125,-8.4375 3.40625,-14.75 c 0,0 -1.52204,-1.16476 -3.65625,-2.53125 -2.17049,3.57203 -6.07757,5.96875 -10.5625,5.96875 -4.53532,0 -8.47021,-2.45479 -10.625,-6.09375 z m 0.375,19.96875 c -1.16456,1.07689 -2.14285,2.33387 -3.25,3.75 l -8.46875,10.65625 0,6.375 21.96875,0 0.0312,0 21.96875,0 0,-6.40625 -8.46875,-10.625 -0.53125,-0.71875 c -0.82233,-1.11287 -1.75411,-2.11725 -2.78125,-3 l -3.65625,2.84375 -6.5625,5.09375 -6.5625,-5.09375 -3.6875,-2.875 z m -11.71875,22.90625 0.8125,10.375 2,0 0,-10.375 -2.8125,0 z m 4.8125,0 0,10.375 2.0625,0 0,-10.375 -2.0625,0 z m 4.0625,0 0,10.375 2.03125,0 0,-10.375 -2.03125,0 z m 4.03125,0 0,10.375 2.0625,0 0,-10.375 -2.0625,0 z m 4.0625,0 0,10.375 2.03125,0 0,-10.375 -2.03125,0 z m 4.03125,0 0,10.375 2.0625,0 0,-10.375 -2.0625,0 z m 4.0625,0 0,10.375 2.03125,0 0,-10.375 -2.03125,0 z m 4.03125,0 0,10.375 2.0625,0 0,-10.375 -2.0625,0 z m 4.0625,0 0,10.375 2.03125,0 0,-10.375 -2.03125,0 z m 4.03125,0 0,10.375 2.0625,0 0,-10.375 -2.0625,0 z m 4.0625,0 0,10.375 2,0 0.71875,-10.375 -2.71875,0 z m -40.5,12.28125 -13.3125,15.9375 0,9.5 34.5625,0 34.53125,0 0,-9.53125 -13.28125,-15.90625 -42.5,0 z m 21.21875,3.75 c 4.78403,0 8.65625,3.87223 8.65625,8.65625 0,4.78403 -3.87222,8.65625 -8.65625,8.65625 -4.78403,0 -8.65625,-3.87222 -8.65625,-8.65625 0,-4.78402 3.87222,-8.65625 8.65625,-8.65625 z m 0,1.34375 c -4.03224,0 -7.3125,3.28026 -7.3125,7.3125 0,4.03224 3.28026,7.3125 7.3125,7.3125 4.03224,0 7.3125,-3.28026 7.3125,-7.3125 0,-4.03224 -3.28026,-7.3125 -7.3125,-7.3125 z"
       transform="translate(0,152.36218)" />
    <rect
       y="256.1293"
       x="-705.15881"
       height="91.23288"
       width="90"
       id="rect4273"
       style="fill:#bdbdbd;fill-opacity:1;stroke:none" />
    <path
       id="path4275"
       d="m -662.47716,258.89343 0,6.96875 -6.28125,0 0,4.625 6.28125,0 0,9.03125 c 0.71849,-0.13767 1.47313,-0.26872 2.3125,-0.375 0.78432,0.0141 1.55214,0.0875 2.3125,0.21875 l 0,-8.875 6.3125,0 0,-4.625 -6.3125,0 0,-6.96875 -4.625,0 z m 4.625,20.46875 0,2.09375 -4.625,0 0,-1.9375 c -3.18647,0.61056 -5.26721,1.52893 -6.875,2.71875 l 9.1875,7.15625 9.15625,-7.0625 c -2.0355,-1.49608 -4.36258,-2.54058 -6.84375,-2.96875 z m -12.5625,3.75 c -1.16456,1.07689 -2.14285,2.33387 -3.25,3.75 l -8.46875,10.65625 0,6.375 21.96875,0 0.0312,0 21.96875,0 0,-6.40625 -8.46875,-10.625 -0.53125,-0.71875 c -0.82233,-1.11287 -1.75411,-2.11725 -2.78125,-3 l -3.65625,2.84375 -6.5625,5.09375 -6.5625,-5.09375 -3.6875,-2.875 z m -11.71875,22.90625 0.8125,10.375 2,0 0,-10.375 -2.8125,0 z m 4.8125,0 0,10.375 2.0625,0 0,-10.375 -2.0625,0 z m 4.0625,0 0,10.375 2.03125,0 0,-10.375 -2.03125,0 z m 4.03125,0 0,10.375 2.0625,0 0,-10.375 -2.0625,0 z m 4.0625,0 0,10.375 2.03125,0 0,-10.375 -2.03125,0 z m 4.03125,0 0,10.375 2.0625,0 0,-10.375 -2.0625,0 z m 4.0625,0 0,10.375 2.03125,0 0,-10.375 -2.03125,0 z m 4.03125,0 0,10.375 2.0625,0 0,-10.375 -2.0625,0 z m 4.0625,0 0,10.375 2.03125,0 0,-10.375 -2.03125,0 z m 4.03125,0 0,10.375 2.0625,0 0,-10.375 -2.0625,0 z m 4.0625,0 0,10.375 2,0 0.71875,-10.375 -2.71875,0 z m -40.5,12.28125 -13.3125,15.9375 0,9.5 34.5625,0 34.53125,0 0,-9.53125 -13.28125,-15.90625 -42.5,0 z"
       style="fill:#e040fb;fill-opacity:1;stroke:none"
       inkscape:connector-curvature="0" />
    <rect
       style="fill:#424242;fill-opacity:1;stroke:none"
       id="rect4277"
       width="90"
       height="91.23288"
       x="-705.15881"
       y="347.36218" />
    <path
       inkscape:connector-curvature="0"
       style="fill:#e040fb;fill-opacity:1;stroke:none"
       d="m -662.47716,350.12631 0,6.96875 -6.28125,0 0,4.625 6.28125,0 0,9.03125 c 0.71849,-0.13767 1.47313,-0.26872 2.3125,-0.375 0.78432,0.0141 1.55214,0.0875 2.3125,0.21875 l 0,-8.875 6.3125,0 0,-4.625 -6.3125,0 0,-6.96875 -4.625,0 z m 4.625,20.46875 0,2.09375 -4.625,0 0,-1.9375 c -3.18647,0.61056 -5.26721,1.52893 -6.875,2.71875 l 9.1875,7.15625 9.15625,-7.0625 c -2.0355,-1.49608 -4.36258,-2.54058 -6.84375,-2.96875 z m -12.5625,3.75 c -1.16456,1.07689 -2.14285,2.33387 -3.25,3.75 l -8.46875,10.65625 0,6.375 21.96875,0 0.0312,0 21.96875,0 0,-6.40625 -8.46875,-10.625 -0.53125,-0.71875 c -0.82233,-1.11287 -1.75411,-2.11725 -2.78125,-3 l -3.65625,2.84375 -6.5625,5.09375 -6.5625,-5.09375 -3.6875,-2.875 z m -11.71875,22.90625 0.8125,10.375 2,0 0,-10.375 -2.8125,0 z m 4.8125,0 0,10.375 2.0625,0 0,-10.375 -2.0625,0 z m 4.0625,0 0,10.375 2.03125,0 0,-10.375 -2.03125,0 z m 4.03125,0 0,10.375 2.0625,0 0,-10.375 -2.0625,0 z m 4.0625,0 0,10.375 2.03125,0 0,-10.375 -2.03125,0 z m 4.03125,0 0,10.375 2.0625,0 0,-10.375 -2.0625,0 z m 4.0625,0 0,10.375 2.03125,0 0,-10.375 -2.03125,0 z m 4.03125,0 0,10.375 2.0625,0 0,-10.375 -2.0625,0 z m 4.0625,0 0,10.375 2.03125,0 0,-10.375 -2.03125,0 z m 4.03125,0 0,10.375 2.0625,0 0,-10.375 -2.0625,0 z m 4.0625,0 0,10.375 2,0 0.71875,-10.375 -2.71875,0 z m -40.5,12.28125 -13.3125,15.9375 0,9.5 34.5625,0 34.53125,0 0,-9.53125 -13.28125,-15.90625 -42.5,0 z"
       id="path4279" />
    <rect
       y="347.36218"
       x="-589.90039"
       height="91.23288"
       width="90"
       id="rect4307"
       style="fill:#424242;fill-opacity:1;stroke:none" />
    <path
       d="m -544.90625,350.12631 c -2.59948,-0.0101 -6.05017,1.60386 -8.96875,3.28125 1.82015,3.06161 5.15187,5.125 8.96875,5.125 3.78299,0 7.10682,-2.01464 8.9375,-5.03125 -2.86718,-1.69506 -6.34869,-3.36492 -8.9375,-3.375 z m -10.625,4.25 c -2.32312,1.44746 -4.03125,2.71875 -4.03125,2.71875 l 3.84375,14.6875 10.8125,8.4375 10.8125,-8.4375 3.40625,-14.75 c 0,0 -1.52204,-1.16476 -3.65625,-2.53125 -2.17049,3.57203 -6.07757,5.96875 -10.5625,5.96875 -4.53532,0 -8.47021,-2.45479 -10.625,-6.09375 z m 0.375,19.96875 c -1.16456,1.07689 -2.14285,2.33387 -3.25,3.75 l -8.46875,10.65625 0,6.375 21.96875,0 0.0312,0 21.96875,0 0,-6.40625 -8.46875,-10.625 -0.53125,-0.71875 c -0.82233,-1.11287 -1.75411,-2.11725 -2.78125,-3 l -3.65625,2.84375 -6.5625,5.09375 -6.5625,-5.09375 -3.6875,-2.875 z m -11.71875,22.90625 0.8125,10.375 2,0 0,-10.375 -2.8125,0 z m 4.8125,0 0,10.375 2.0625,0 0,-10.375 -2.0625,0 z m 4.0625,0 0,10.375 2.03125,0 0,-10.375 -2.03125,0 z m 4.03125,0 0,10.375 2.0625,0 0,-10.375 -2.0625,0 z m 4.0625,0 0,10.375 2.03125,0 0,-10.375 -2.03125,0 z m 4.03125,0 0,10.375 2.0625,0 0,-10.375 -2.0625,0 z m 4.0625,0 0,10.375 2.03125,0 0,-10.375 -2.03125,0 z m 4.03125,0 0,10.375 2.0625,0 0,-10.375 -2.0625,0 z m 4.0625,0 0,10.375 2.03125,0 0,-10.375 -2.03125,0 z m 4.03125,0 0,10.375 2.0625,0 0,-10.375 -2.0625,0 z m 4.0625,0 0,10.375 2,0 0.71875,-10.375 -2.71875,0 z m -40.5,12.28125 -13.3125,15.9375 0,9.5 34.5625,0 34.53125,0 0,-9.53125 -13.28125,-15.90625 -42.5,0 z m 21.21875,3.75 c 4.78403,0 8.65625,3.87223 8.65625,8.65625 0,4.78403 -3.87222,8.65625 -8.65625,8.65625 -4.78403,0 -8.65625,-3.87222 -8.65625,-8.65625 0,-4.78402 3.87222,-8.65625 8.65625,-8.65625 z m 0,1.34375 c -4.03224,0 -7.3125,3.28026 -7.3125,7.3125 0,4.03224 3.28026,7.3125 7.3125,7.3125 4.03224,0 7.3125,-3.28026 7.3125,-7.3125 0,-4.03224 -3.28026,-7.3125 -7.3125,-7.3125 z"
       style="fill:#e040fb;fill-opacity:1;stroke:none"
       id="path4309"
       inkscape:connector-curvature="0" />
    <g
       id="g3179"
       transform="translate(-35.999989,-28.525178)">
      <g
         transform="translate(-452,-968)"
         id="g4384">
        <rect
           y="168.88736"
           x="1340"
           height="900"
           width="720"
           id="rect4314"
           style="fill:#212121;fill-opacity:1;stroke:none" />
        <rect
           style="fill:#424242;fill-opacity:1;stroke:none"
           id="rect4316"
           width="720"
           height="720"
           x="1340"
           y="258.88736" />
        <g
           style="fill:#bdbdbd;fill-opacity:1"
           id="g4318"
           transform="translate(1340,16.525177)">
          <rect
             style="fill:#bdbdbd;fill-opacity:1;stroke:none"
             id="rect4320"
             width="90"
             height="90"
             x="4.9999999e-05"
             y="872.36218" />
          <rect
             style="fill:#bdbdbd;fill-opacity:1;stroke:none"
             id="rect4322"
             width="90"
             height="90"
             x="180.00006"
             y="872.36218" />
          <rect
             style="fill:#bdbdbd;fill-opacity:1;stroke:none"
             id="rect4324"
             width="90"
             height="90"
             x="360.00006"
             y="872.36218" />
          <rect
             y="872.36218"
             x="540.00006"
             height="90"
             width="90"
             id="rect4326"
             style="fill:#bdbdbd;fill-opacity:1;stroke:none" />
          <rect
             y="782.36218"
             x="630.00006"
             height="90"
             width="90"
             id="rect4328"
             style="fill:#bdbdbd;fill-opacity:1;stroke:none" />
          <rect
             y="782.36218"
             x="90.000061"
             height="90"
             width="90"
             id="rect4330"
             style="fill:#bdbdbd;fill-opacity:1;stroke:none" />
          <rect
             y="782.36218"
             x="270.00006"
             height="90"
             width="90"
             id="rect4332"
             style="fill:#bdbdbd;fill-opacity:1;stroke:none" />
          <rect
             style="fill:#bdbdbd;fill-opacity:1;stroke:none"
             id="rect4334"
             width="90"
             height="90"
             x="450.00003"
             y="782.36218" />
          <rect
             y="692.36218"
             x="6.1035156e-05"
             height="90"
             width="90"
             id="rect4336"
             style="fill:#bdbdbd;fill-opacity:1;stroke:none" />
          <rect
             y="692.36218"
             x="180.00008"
             height="90"
             width="90"
             id="rect4338"
             style="fill:#bdbdbd;fill-opacity:1;stroke:none" />
          <rect
             y="692.36218"
             x="360.00006"
             height="90"
             width="90"
             id="rect4340"
             style="fill:#bdbdbd;fill-opacity:1;stroke:none" />
          <rect
             style="fill:#bdbdbd;fill-opacity:1;stroke:none"
             id="rect4342"
             width="90"
             height="90"
             x="540.00006"
             y="692.36218" />
          <rect
             style="fill:#bdbdbd;fill-opacity:1;stroke:none"
             id="rect4344"
             width="90"
             height="90"
             x="630.00006"
             y="602.36218" />
          <rect
             style="fill:#bdbdbd;fill-opacity:1;stroke:none"
             id="rect4346"
             width="90"
             height="90"
             x="90.000069"
             y="602.36218" />
          <rect
             style="fill:#bdbdbd;fill-opacity:1;stroke:none"
             id="rect4348"
             width="90"
             height="90"
             x="270.00006"
             y="602.36218" />
          <rect
             y="602.36218"
             x="450.00003"
             height="90"
             width="90"
             id="rect4350"
             style="fill:#bdbdbd;fill-opacity:1;stroke:none" />
          <rect
             y="512.36218"
             x="-1.1035158e-05"
             height="90"
             width="90"
             id="rect4352"
             style="fill:#bdbdbd;fill-opacity:1;stroke:none" />
          <rect
             y="512.36218"
             x="180"
             height="90"
             width="90"
             id="rect4354"
             style="fill:#bdbdbd;fill-opacity:1;stroke:none" />
          <rect
             y="512.36218"
             x="360"
             height="90"
             width="90"
             id="rect4356"
             style="fill:#bdbdbd;fill-opacity:1;stroke:none" />
          <rect
             style="fill:#bdbdbd;fill-opacity:1;stroke:none"
             id="rect4358"
             width="90"
             height="90"
             x="540"
             y="512.36218" />
          <rect
             style="fill:#bdbdbd;fill-opacity:1;stroke:none"
             id="rect4360"
             width="90"
             height="90"
             x="630"
             y="422.36218" />
          <rect
             style="fill:#bdbdbd;fill-opacity:1;stroke:none"
             id="rect4362"
             width="90"
             height="90"
             x="90"
             y="422.36218" />
          <rect
             style="fill:#bdbdbd;fill-opacity:1;stroke:none"
             id="rect4364"
             width="90"
             height="90"
             x="270"
             y="422.36218" />
          <rect
             y="422.36218"
             x="449.99997"
             height="90"
             width="90"
             id="rect4366"
             style="fill:#bdbdbd;fill-opacity:1;stroke:none" />
          <rect
             style="fill:#bdbdbd;fill-opacity:1;stroke:none"
             id="rect4368"
             width="90"
             height="90"
             x="0"
             y="332.36218" />
          <rect
             style="fill:#bdbdbd;fill-opacity:1;stroke:none"
             id="rect4370"
             width="90"
             height="90"
             x="180.00002"
             y="332.36218" />
          <rect
             style="fill:#bdbdbd;fill-opacity:1;stroke:none"
             id="rect4372"
             width="90"
             height="90"
             x="360"
             y="332.36218" />
          <rect
             y="332.36218"
             x="540"
             height="90"
             width="90"
             id="rect4374"
             style="fill:#bdbdbd;fill-opacity:1;stroke:none" />
          <rect
             y="242.36218"
             x="630"
             height="90"
             width="90"
             id="rect4376"
             style="fill:#bdbdbd;fill-opacity:1;stroke:none" />
          <rect
             y="242.36218"
             x="90.000008"
             height="90"
             width="90"
             id="rect4378"
             style="fill:#bdbdbd;fill-opacity:1;stroke:none" />
          <rect
             y="242.36218"
             x="270"
             height="90"
             width="90"
             id="rect4380"
             style="fill:#bdbdbd;fill-opacity:1;stroke:none" />
          <rect
             style="fill:#bdbdbd;fill-opacity:1;stroke:none"
             id="rect4382"
             width="90"
             height="90"
             x="449.99997"
             y="242.36218" />
        </g>
      </g>
    </g>
    <rect
       style="fill:#bdbdbd;fill-opacity:1;stroke:none"
       id="rect3174"
       width="90"
       height="91.23288"
       x="-249.12115"
       y="256.1293" />
    <path
       style="fill:#e040fb;fill-opacity:1;stroke:none"
       d="M -233.15625 106.53125 L -233.15625 163.90625 L -175.09375 163.90625 L -175.09375 106.53125 L -191.28125 106.53125 L -191.28125 135.75 L -199.03125 135.75 L -199.03125 106.53125 L -209.21875 106.53125 L -209.21875 135.75 L -216.96875 135.75 L -216.96875 106.53125 L -233.15625 106.53125 z M -233.125 165.9375 L -238.6875 181.875 L -238.6875 191.375 L -204.125 191.375 L -169.59375 191.375 L -169.59375 181.84375 L -175.125 165.9375 L -233.125 165.9375 z "
       transform="translate(0,152.36218)"
       id="rect3994"
       inkscape:export-xdpi="90"
       inkscape:export-ydpi="90"
       inkscape:export-filename="/home/oscar/projects/bamtang/prob4/images/torre-black.png" />
    <rect
       y="343.74017"
       x="-249.12115"
       height="91.23288"
       width="90"
       id="rect3175"
       style="fill:#424242;fill-opacity:1;stroke:none" />
    <path
       inkscape:export-filename="/home/oscar/projects/bamtang/prob4/images/torre-black.png"
       inkscape:export-ydpi="90"
       inkscape:export-xdpi="90"
       id="path3177"
       d="m -233.15625,346.5043 0,57.375 58.0625,0 0,-57.375 -16.1875,0 0,29.21875 -7.75,0 0,-29.21875 -10.1875,0 0,29.21875 -7.75,0 0,-29.21875 -16.1875,0 z m 0.0312,59.40625 -5.5625,15.9375 0,9.5 34.5625,0 34.53125,0 0,-9.53125 -5.53125,-15.90625 -58,0 z"
       style="fill:#e040fb;fill-opacity:1;stroke:none"
       inkscape:connector-curvature="0" />
    <g
       id="g4093"
       inkscape:export-filename="/home/oscar/projects/bamtang/prob4/images/chess.png"
       inkscape:export-xdpi="90"
       inkscape:export-ydpi="90">
      <g
         id="g3977">
        <g
           id="g3862">
          <g
             id="g3748">
            <g
               id="g3635">
              <g
                 id="g3523">
                <g
                   id="g3412">
                  <rect
                     inkscape:export-ydpi="90"
                     inkscape:export-xdpi="90"
                     inkscape:export-filename="/home/oscar/projects/bamtang/prob4/g4638.png"
                     y="152.36218"
                     x="0"
                     height="900"
                     width="720"
                     id="rect2985"
                     style="fill:#212121;fill-opacity:1;stroke:none" />
                  <rect
                     y="872.36218"
                     x="4.9999999e-05"
                     height="90"
                     width="90"
                     id="rect3016"
                     style="fill:#424242;fill-opacity:1;stroke:none" />
                  <rect
                     style="fill:#424242;fill-opacity:1;stroke:none"
                     id="rect3080"
                     width="90"
                     height="90"
                     x="6.1035156e-05"
                     y="692.36218" />
                  <rect
                     style="fill:#424242;fill-opacity:1;stroke:none"
                     id="rect3112"
                     width="90"
                     height="90"
                     x="-1.1035158e-05"
                     y="512.36218" />
                  <rect
                     y="332.36218"
                     x="0"
                     height="90"
                     width="90"
                     id="rect3144"
                     style="fill:#424242;fill-opacity:1;stroke:none" />
                  <g
                     id="g4786"
                     style="fill:#424242;fill-opacity:1">
                    <rect
                       style="fill:#424242;fill-opacity:1;stroke:none"
                       id="rect3020"
                       width="90"
                       height="90"
                       x="180.00006"
                       y="872.36218" />
                    <rect
                       y="692.36218"
                       x="180.00008"
                       height="90"
                       width="90"
                       id="rect3084"
                       style="fill:#424242;fill-opacity:1;stroke:none" />
                    <rect
                       y="512.36218"
                       x="180"
                       height="90"
                       width="90"
                       id="rect3116"
                       style="fill:#424242;fill-opacity:1;stroke:none" />
                    <rect
                       style="fill:#424242;fill-opacity:1;stroke:none"
                       id="rect3148"
                       width="90"
                       height="90"
                       x="180.00002"
                       y="332.36218" />
                  </g>
                  <g
                     id="g4798"
                     style="fill:#424242;fill-opacity:1">
                    <rect
                       style="fill:#424242;fill-opacity:1;stroke:none"
                       id="rect3024"
                       width="90"
                       height="90"
                       x="360.00006"
                       y="872.36218" />
                    <rect
                       y="692.36218"
                       x="360.00006"
                       height="90"
                       width="90"
                       id="rect3088"
                       style="fill:#424242;fill-opacity:1;stroke:none" />
                    <rect
                       y="512.36218"
                       x="360"
                       height="90"
                       width="90"
                       id="rect3120"
                       style="fill:#424242;fill-opacity:1;stroke:none" />
                    <rect
                       style="fill:#424242;fill-opacity:1;stroke:none"
                       id="rect3152"
                       width="90"
                       height="90"
                       x="360"
                       y="332.36218" />
                  </g>
                  <g
                     id="g4810"
                     style="fill:#424242;fill-opacity:1">
                    <rect
                       y="872.36218"
                       x="540.00006"
                       height="90"
                       width="90"
                       id="rect3028"
                       style="fill:#424242;fill-opacity:1;stroke:none" />
                    <rect
                       style="fill:#424242;fill-opacity:1;stroke:none"
                       id="rect3092"
                       width="90"
                       height="90"
                       x="540.00006"
                       y="692.36218" />
                    <rect
                       style="fill:#424242;fill-opacity:1;stroke:none"
                       id="rect3124"
                       width="90"
                       height="90"
                       x="540"
                       y="512.36218" />
                    <rect
                       y="332.36218"
                       x="540"
                       height="90"
                       width="90"
                       id="rect3156"
                       style="fill:#424242;fill-opacity:1;stroke:none" />
                  </g>
                  <rect
                     style="fill:#424242;fill-opacity:1;stroke:none"
                     id="rect3048"
                     width="90"
                     height="90"
                     x="630.00006"
                     y="782.36218" />
                  <rect
                     y="602.36218"
                     x="630.00006"
                     height="90"
                     width="90"
                     id="rect3096"
                     style="fill:#424242;fill-opacity:1;stroke:none" />
                  <rect
                     y="422.36218"
                     x="630"
                     height="90"
                     width="90"
                     id="rect3128"
                     style="fill:#424242;fill-opacity:1;stroke:none" />
                  <rect
                     style="fill:#424242;fill-opacity:1;stroke:none"
                     id="rect3160"
                     width="90"
                     height="90"
                     x="630"
                     y="242.36218" />
                  <g
                     id="g4780"
                     style="fill:#424242;fill-opacity:1">
                    <rect
                       y="782.36218"
                       x="90.000061"
                       height="90"
                       width="90"
                       id="rect3052"
                       style="fill:#424242;fill-opacity:1;stroke:none" />
                    <rect
                       style="fill:#424242;fill-opacity:1;stroke:none"
                       id="rect3100"
                       width="90"
                       height="90"
                       x="90.000069"
                       y="602.36218" />
                    <rect
                       style="fill:#424242;fill-opacity:1;stroke:none"
                       id="rect3132"
                       width="90"
                       height="90"
                       x="90"
                       y="422.36218" />
                    <rect
                       y="242.36218"
                       x="90.000008"
                       height="90"
                       width="90"
                       id="rect3164"
                       style="fill:#424242;fill-opacity:1;stroke:none" />
                  </g>
                  <g
                     id="g4792"
                     style="fill:#424242;fill-opacity:1">
                    <rect
                       y="782.36218"
                       x="270.00006"
                       height="90"
                       width="90"
                       id="rect3056"
                       style="fill:#424242;fill-opacity:1;stroke:none" />
                    <rect
                       style="fill:#424242;fill-opacity:1;stroke:none"
                       id="rect3104"
                       width="90"
                       height="90"
                       x="270.00006"
                       y="602.36218" />
                    <rect
                       style="fill:#424242;fill-opacity:1;stroke:none"
                       id="rect3136"
                       width="90"
                       height="90"
                       x="270"
                       y="422.36218" />
                    <rect
                       y="242.36218"
                       x="270"
                       height="90"
                       width="90"
                       id="rect3168"
                       style="fill:#424242;fill-opacity:1;stroke:none" />
                  </g>
                  <g
                     id="g4804"
                     style="fill:#424242;fill-opacity:1">
                    <rect
                       style="fill:#424242;fill-opacity:1;stroke:none"
                       id="rect3060"
                       width="90"
                       height="90"
                       x="450.00003"
                       y="782.36218" />
                    <rect
                       y="602.36218"
                       x="450.00003"
                       height="90"
                       width="90"
                       id="rect3108"
                       style="fill:#424242;fill-opacity:1;stroke:none" />
                    <rect
                       y="422.36218"
                       x="449.99997"
                       height="90"
                       width="90"
                       id="rect3140"
                       style="fill:#424242;fill-opacity:1;stroke:none" />
                    <rect
                       style="fill:#424242;fill-opacity:1;stroke:none"
                       id="rect3172"
                       width="90"
                       height="90"
                       x="449.99997"
                       y="242.36218" />
                  </g>
                  <rect
                     y="332.36218"
                     x="630.00006"
                     height="90"
                     width="90"
                     id="rect4490"
                     style="fill:#757575;fill-opacity:1;stroke:none" />
                  <rect
                     style="fill:#757575;fill-opacity:1;stroke:none"
                     id="rect4498"
                     width="90"
                     height="90"
                     x="630.00006"
                     y="512.36218" />
                  <rect
                     y="692.36218"
                     x="630.00006"
                     height="90"
                     width="90"
                     id="rect4506"
                     style="fill:#757575;fill-opacity:1;stroke:none" />
                  <rect
                     style="fill:#757575;fill-opacity:1;stroke:none"
                     id="rect4514"
                     width="90"
                     height="90"
                     x="630.00006"
                     y="872.36218" />
                  <g
                     id="g4756"
                     style="fill:#757575;fill-opacity:1">
                    <rect
                       y="332.36218"
                       x="450"
                       height="90"
                       width="90"
                       id="rect4492"
                       style="fill:#757575;fill-opacity:1;stroke:none" />
                    <rect
                       style="fill:#757575;fill-opacity:1;stroke:none"
                       id="rect4500"
                       width="90"
                       height="90"
                       x="450"
                       y="512.36218" />
                    <rect
                       y="692.36218"
                       x="450.00003"
                       height="90"
                       width="90"
                       id="rect4508"
                       style="fill:#757575;fill-opacity:1;stroke:none" />
                    <rect
                       style="fill:#757575;fill-opacity:1;stroke:none"
                       id="rect4516"
                       width="90"
                       height="90"
                       x="450.00003"
                       y="872.36218" />
                  </g>
                  <g
                     id="g4744"
                     style="fill:#757575;fill-opacity:1">
                    <rect
                       style="fill:#757575;fill-opacity:1;stroke:none"
                       id="rect4494"
                       width="90"
                       height="90"
                       x="270"
                       y="332.36218" />
                    <rect
                       y="512.36218"
                       x="270"
                       height="90"
                       width="90"
                       id="rect4502"
                       style="fill:#757575;fill-opacity:1;stroke:none" />
                    <rect
                       style="fill:#757575;fill-opacity:1;stroke:none"
                       id="rect4510"
                       width="90"
                       height="90"
                       x="270.00003"
                       y="692.36218" />
                    <rect
                       y="872.36218"
                       x="270.00003"
                       height="90"
                       width="90"
                       id="rect4518"
                       style="fill:#757575;fill-opacity:1;stroke:none" />
                  </g>
                  <g
                     id="g4732"
                     style="fill:#757575;fill-opacity:1">
                    <rect
                       y="332.36218"
                       x="90"
                       height="90"
                       width="90"
                       id="rect4496"
                       style="fill:#757575;fill-opacity:1;stroke:none" />
                    <rect
                       style="fill:#757575;fill-opacity:1;stroke:none"
                       id="rect4504"
                       width="90"
                       height="90"
                       x="90"
                       y="512.36218" />
                    <rect
                       y="692.36218"
                       x="90.000031"
                       height="90"
                       width="90"
                       id="rect4512"
                       style="fill:#757575;fill-opacity:1;stroke:none" />
                    <rect
                       style="fill:#757575;fill-opacity:1;stroke:none"
                       id="rect4520"
                       width="90"
                       height="90"
                       x="90.000031"
                       y="872.36218" />
                  </g>
                  <rect
                     y="242.36218"
                     x="7.6293945e-06"
                     height="90"
                     width="90"
                     id="rect4464"
                     style="fill:#757575;fill-opacity:1;stroke:none" />
                  <rect
                     style="fill:#757575;fill-opacity:1;stroke:none"
                     id="rect4472"
                     width="90"
                     height="90"
                     x="0"
                     y="422.36218" />
                  <rect
                     y="782.36218"
                     x="6.1035156e-05"
                     height="90"
                     width="90"
                     id="rect4482"
                     style="fill:#757575;fill-opacity:1;stroke:none" />
                  <rect
                     y="602.36218"
                     x="6.1035156e-05"
                     height="90"
                     width="90"
                     id="rect4522"
                     style="fill:#757575;fill-opacity:1;stroke:none" />
                  <g
                     id="g4738"
                     style="fill:#757575;fill-opacity:1">
                    <rect
                       y="242.36218"
                       x="180"
                       height="90"
                       width="90"
                       id="rect4466"
                       style="fill:#757575;fill-opacity:1;stroke:none" />
                    <rect
                       style="fill:#757575;fill-opacity:1;stroke:none"
                       id="rect4474"
                       width="90"
                       height="90"
                       x="180"
                       y="422.36218" />
                    <rect
                       y="782.36218"
                       x="180.00006"
                       height="90"
                       width="90"
                       id="rect4484"
                       style="fill:#757575;fill-opacity:1;stroke:none" />
                    <rect
                       y="602.36218"
                       x="180.00006"
                       height="90"
                       width="90"
                       id="rect4524"
                       style="fill:#757575;fill-opacity:1;stroke:none" />
                  </g>
                  <g
                     id="g4750"
                     style="fill:#757575;fill-opacity:1">
                    <rect
                       style="fill:#757575;fill-opacity:1;stroke:none"
                       id="rect4468"
                       width="90"
                       height="90"
                       x="359.99997"
                       y="242.36218" />
                    <rect
                       y="422.36218"
                       x="359.99997"
                       height="90"
                       width="90"
                       id="rect4476"
                       style="fill:#757575;fill-opacity:1;stroke:none" />
                    <rect
                       style="fill:#757575;fill-opacity:1;stroke:none"
                       id="rect4486"
                       width="90"
                       height="90"
                       x="360.00003"
                       y="782.36218" />
                    <rect
                       style="fill:#757575;fill-opacity:1;stroke:none"
                       id="rect4526"
                       width="90"
                       height="90"
                       x="360.00003"
                       y="602.36218" />
                  </g>
                  <g
                     id="g4762"
                     style="fill:#757575;fill-opacity:1">
                    <rect
                       y="242.36218"
                       x="540"
                       height="90"
                       width="90"
                       id="rect4470"
                       style="fill:#757575;fill-opacity:1;stroke:none" />
                    <rect
                       style="fill:#757575;fill-opacity:1;stroke:none"
                       id="rect4478"
                       width="90"
                       height="90"
                       x="540"
                       y="422.36218" />
                    <rect
                       y="782.36218"
                       x="540.00006"
                       height="90"
                       width="90"
                       id="rect4488"
                       style="fill:#757575;fill-opacity:1;stroke:none" />
                    <rect
                       y="602.36218"
                       x="540.00006"
                       height="90"
                       width="90"
                       id="rect4528"
                       style="fill:#757575;fill-opacity:1;stroke:none" />
                  </g>
                  <path
                     id="path4312"
                     style="fill:#69f0ae;fill-opacity:1;stroke:none"
                     d="m 67.500005,358.33555 c 0,12.92334 -10.073598,23.39978 -22.499998,23.39978 -12.42641,0 -22.5,-10.47644 -22.5,-23.39978 0,-12.92334 10.07359,-23.39978 22.5,-23.39978 12.4264,0 22.499998,10.47644 22.499998,23.39978 z m 19.999988,61.45305 -42.499986,0 -42.4999995,0 21.2499895,-26.09982 21.25001,-26.09983 21.249998,26.09983 z"
                     inkscape:connector-curvature="0" />
                  <path
                     inkscape:connector-curvature="0"
                     d="m 697.49999,358.33555 c 0,12.92334 -10.07359,23.39978 -22.49999,23.39978 -12.42641,0 -22.5,-10.47644 -22.5,-23.39978 0,-12.92334 10.07359,-23.39978 22.5,-23.39978 12.4264,0 22.49999,10.47644 22.49999,23.39978 z m 19.99999,61.45305 -42.49998,0 -42.5,0 21.24999,-26.09982 L 675,367.58895 l 21.24999,26.09983 z"
                     style="fill:#69f0ae;fill-opacity:1;stroke:none"
                     id="path4530" />
                  <path
                     id="path4532"
                     style="fill:#69f0ae;fill-opacity:1;stroke:none"
                     d="m 607.49999,358.33555 c 0,12.92334 -10.07359,23.39978 -22.49999,23.39978 -12.42641,0 -22.5,-10.47644 -22.5,-23.39978 0,-12.92334 10.07359,-23.39978 22.5,-23.39978 12.4264,0 22.49999,10.47644 22.49999,23.39978 z m 19.99999,61.45305 -42.49998,0 -42.5,0 21.24999,-26.09982 L 585,367.58895 l 21.24999,26.09983 z"
                     inkscape:connector-curvature="0" />
                  <path
                     inkscape:connector-curvature="0"
                     d="m 517.49999,358.33555 c 0,12.92334 -10.07359,23.39978 -22.49999,23.39978 -12.42641,0 -22.5,-10.47644 -22.5,-23.39978 0,-12.92334 10.07359,-23.39978 22.5,-23.39978 12.4264,0 22.49999,10.47644 22.49999,23.39978 z m 19.99999,61.45305 -42.49998,0 -42.5,0 21.24999,-26.09982 L 495,367.58895 l 21.24999,26.09983 z"
                     style="fill:#69f0ae;fill-opacity:1;stroke:none"
                     id="path4534" />
                  <path
                     id="path4536"
                     style="fill:#69f0ae;fill-opacity:1;stroke:none"
                     d="m 427.49999,358.33555 c 0,12.92334 -10.07359,23.39978 -22.49999,23.39978 -12.42641,0 -22.5,-10.47644 -22.5,-23.39978 0,-12.92334 10.07359,-23.39978 22.5,-23.39978 12.4264,0 22.49999,10.47644 22.49999,23.39978 z m 19.99999,61.45305 -42.49998,0 -42.5,0 21.24999,-26.09982 L 405,367.58895 l 21.24999,26.09983 z"
                     inkscape:connector-curvature="0" />
                  <path
                     inkscape:connector-curvature="0"
                     d="m 337.49999,358.33555 c 0,12.92334 -10.07359,23.39978 -22.49999,23.39978 -12.42641,0 -22.5,-10.47644 -22.5,-23.39978 0,-12.92334 10.07359,-23.39978 22.5,-23.39978 12.4264,0 22.49999,10.47644 22.49999,23.39978 z m 19.99999,61.45305 -42.49998,0 -42.5,0 21.24999,-26.09982 L 315,367.58895 l 21.24999,26.09983 z"
                     style="fill:#69f0ae;fill-opacity:1;stroke:none"
                     id="path4538" />
                  <path
                     id="path4540"
                     style="fill:#69f0ae;fill-opacity:1;stroke:none"
                     d="m 247.49999,358.33555 c 0,12.92334 -10.07359,23.39978 -22.49999,23.39978 -12.42641,0 -22.5,-10.47644 -22.5,-23.39978 0,-12.92334 10.07359,-23.39978 22.5,-23.39978 12.4264,0 22.49999,10.47644 22.49999,23.39978 z m 19.99999,61.45305 -42.49998,0 -42.5,0 21.24999,-26.09982 L 225,367.58895 l 21.24999,26.09983 z"
                     inkscape:connector-curvature="0" />
                  <path
                     inkscape:connector-curvature="0"
                     d="m 157.5,358.33555 c 0,12.92334 -10.07359,23.39978 -22.49999,23.39978 -12.42641,0 -22.5,-10.47644 -22.5,-23.39978 0,-12.92334 10.07359,-23.39978 22.5,-23.39978 12.4264,0 22.49999,10.47644 22.49999,23.39978 z m 19.99999,61.45305 -42.49998,0 -42.500002,0 L 113.75,393.68878 135.00001,367.58895 156.25,393.68878 z"
                     style="fill:#69f0ae;fill-opacity:1;stroke:none"
                     id="path4542" />
                  <path
                     style="fill:#69f0ae;fill-opacity:1;stroke:none"
                     d="m 224.29687,244.93578 c -3.58647,0 -6.97286,1.39836 -9.96875,3.86415 l 0,37.08944 -6.8125,0 0,-28.37928 c -3.32236,6.30067 -5.34375,14.48345 -5.34375,23.43825 0,7.28547 1.34044,14.06545 3.625,19.73247 l 37.375,0 -0.25,-0.31673 c 2.20762,-5.60251 3.5,-12.26477 3.5,-19.41574 0,-19.8917 -9.90559,-36.01256 -22.125,-36.01256 z m -19.46875,58.15221 -1.0625,1.26693 -13.3125,15.93168 0,9.50199 34.5625,0 34.53125,0 0,-9.53366 -13.28125,-15.90001 -1.0625,-1.26693 -40.375,0 z"
                     id="path4548"
                     inkscape:connector-curvature="0" />
                  <path
                     inkscape:connector-curvature="0"
                     id="path4554"
                     d="m 494.29684,244.93578 c -3.58647,0 -6.97286,1.39836 -9.96875,3.86415 l 0,37.08944 -6.8125,0 0,-28.37928 c -3.32236,6.30067 -5.34375,14.48345 -5.34375,23.43825 0,7.28547 1.34044,14.06545 3.625,19.73247 l 37.375,0 -0.25,-0.31673 c 2.20762,-5.60251 3.5,-12.26477 3.5,-19.41574 0,-19.8917 -9.90559,-36.01256 -22.125,-36.01256 z m -19.46875,58.15221 -1.0625,1.26693 -13.3125,15.93168 0,9.50199 34.5625,0 34.53125,0 0,-9.53366 -13.28125,-15.90001 -1.0625,-1.26693 -40.375,0 z"
                     style="fill:#69f0ae;fill-opacity:1;stroke:none" />
                  <path
                     style="fill:#69f0ae;fill-opacity:1;stroke:none"
                     d="m 133.7659,244.93578 -0.0312,9.25265 -28.58852,28.13691 11.40417,12.09476 c 4.70572,-4.17916 9.48728,-4.90184 15.34093,-1.92633 -6.2758,6.27992 -13.52284,11.79368 -17.49679,19.86321 l 0.0624,17.43161 18.96528,0 30.99435,0 0.40617,-15.69477 c -0.8089,-6.11485 -5.10675,-9.58775 -8.84213,-13.48423 2.67088,-3.02034 5.63411,-5.7647 7.21744,-9.88424 2.08794,-4.39003 2.00165,-10.19239 0.84359,-16.7053 -1.82688,-7.17755 -7.00676,-12.35155 -11.65413,-17.74739 l -0.78111,-0.72632 0,13.42107 -2.53077,0 0,-15.82108 -2.28085,-2.17895 0,11.62107 -2.53078,0 0,-14.02108 -2.28083,-2.17895 0,11.5895 -2.49954,0 0,-12.85266 -5.71772,-0.18948 z m -2.62452,20.21058 4.03052,0 0,4.95791 -4.03052,0 0,-4.95791 z"
                     id="path4556"
                     inkscape:connector-curvature="0" />
                  <path
                     inkscape:connector-curvature="0"
                     id="path4560"
                     d="m 583.76589,244.93578 -0.0312,9.25265 -28.58852,28.13691 11.40417,12.09476 c 4.70572,-4.17916 9.48728,-4.90184 15.34093,-1.92633 -6.2758,6.27992 -13.52284,11.79368 -17.49679,19.86321 l 0.0624,17.43161 18.96528,0 30.99435,0 0.40617,-15.69477 c -0.8089,-6.11485 -5.10675,-9.58775 -8.84213,-13.48423 2.67088,-3.02034 5.63411,-5.7647 7.21744,-9.88424 2.08794,-4.39003 2.00165,-10.19239 0.84359,-16.7053 -1.82688,-7.17755 -7.00676,-12.35155 -11.65413,-17.74739 l -0.78111,-0.72632 0,13.42107 -2.53077,0 0,-15.82108 -2.28085,-2.17895 0,11.62107 -2.53078,0 0,-14.02108 -2.28083,-2.17895 0,11.5895 -2.49954,0 0,-12.85266 -5.71772,-0.18948 z m -2.62452,20.21058 4.03052,0 0,4.95791 -4.03052,0 0,-4.95791 z"
                     style="fill:#69f0ae;fill-opacity:1;stroke:none" />
                  <path
                     d="m 314.98437,244.94034 c -2.59947,-0.0101 -6.05016,1.60386 -8.96875,3.28125 1.82015,3.06161 5.15188,5.125 8.96875,5.125 3.78301,0 7.10683,-2.01464 8.9375,-5.03125 -2.86716,-1.69506 -6.34868,-3.36492 -8.9375,-3.375 z m -10.625,4.25 c -2.32312,1.44746 -4.03125,2.71875 -4.03125,2.71875 l 3.84375,14.6875 10.8125,8.4375 10.8125,-8.4375 3.40625,-14.75 c 0,0 -1.52202,-1.16476 -3.65625,-2.53125 -2.17048,3.57203 -6.07756,5.96875 -10.5625,5.96875 -4.5353,0 -8.47019,-2.45479 -10.625,-6.09375 z m 0.375,19.96875 c -1.16456,1.07689 -2.14283,2.33387 -3.25,3.75 l -8.46875,10.65624 0,6.375 21.96875,0 0.0312,0 21.96875,0 0,-6.40625 -8.46875,-10.62499 -0.53125,-0.71875 c -0.82231,-1.11287 -1.75409,-2.11725 -2.78125,-3 l -3.65625,2.84375 -6.5625,5.09375 -6.5625,-5.09375 -3.6875,-2.875 z m -11.71875,22.90624 0.8125,10.375 2,0 0,-10.375 -2.8125,0 z m 4.8125,0 0,10.375 2.0625,0 0,-10.375 -2.0625,0 z m 4.0625,0 0,10.375 2.03125,0 0,-10.375 -2.03125,0 z m 4.03125,0 0,10.375 2.0625,0 0,-10.375 -2.0625,0 z m 4.0625,0 0,10.375 2.03125,0 0,-10.375 -2.03125,0 z m 4.03125,0 0,10.375 2.0625,0 0,-10.375 -2.0625,0 z m 4.0625,0 0,10.375 2.03125,0 0,-10.375 -2.03125,0 z m 4.03125,0 0,10.375 2.0625,0 0,-10.375 -2.0625,0 z m 4.0625,0 0,10.375 2.03125,0 0,-10.375 -2.03125,0 z m 4.03125,0 0,10.375 2.0625,0 0,-10.375 -2.0625,0 z m 4.0625,0 0,10.375 2,0 0.71875,-10.375 -2.71875,0 z m -40.5,12.28125 -13.3125,15.9375 0,9.5 34.5625,0 34.53125,0 0,-9.53125 -13.28125,-15.90625 -42.5,0 z m 21.21875,3.75 c 4.78404,0 8.65625,3.87223 8.65625,8.65625 0,4.78403 -3.87221,8.65625 -8.65625,8.65625 -4.78402,0 -8.65625,-3.87222 -8.65625,-8.65625 0,-4.78402 3.87223,-8.65625 8.65625,-8.65625 z m 0,1.34375 c -4.03224,0 -7.3125,3.28026 -7.3125,7.3125 0,4.03224 3.28026,7.3125 7.3125,7.3125 4.03224,0 7.3125,-3.28026 7.3125,-7.3125 0,-4.03224 -3.28026,-7.3125 -7.3125,-7.3125 z"
                     style="fill:#69f0ae;fill-opacity:1;stroke:none"
                     id="path4562"
                     inkscape:connector-curvature="0" />
                  <path
                     id="path4564"
                     d="m 402.67184,244.94031 0,6.96875 -6.28125,0 0,4.625 6.28125,0 0,9.03125 c 0.71849,-0.13767 1.47313,-0.26872 2.3125,-0.375 0.78432,0.0141 1.55214,0.0875 2.3125,0.21875 l 0,-8.875 6.3125,0 0,-4.625 -6.3125,0 0,-6.96875 -4.625,0 z m 4.625,20.46875 0,2.09375 -4.625,0 0,-1.9375 c -3.18647,0.61056 -5.26721,1.52893 -6.875,2.71875 l 9.1875,7.15625 9.15625,-7.0625 c -2.0355,-1.49608 -4.36258,-2.54058 -6.84375,-2.96875 z m -12.5625,3.75 c -1.16456,1.07689 -2.14285,2.33387 -3.25,3.75 l -8.46875,10.65625 0,6.375 21.96875,0 0.0312,0 21.96875,0 0,-6.40625 -8.46875,-10.625 -0.53125,-0.71875 c -0.82233,-1.11287 -1.75411,-2.11725 -2.78125,-3 l -3.65625,2.84375 -6.5625,5.09375 -6.5625,-5.09375 -3.6875,-2.875 z m -11.71875,22.90625 0.8125,10.375 2,0 0,-10.375 -2.8125,0 z m 4.8125,0 0,10.375 2.0625,0 0,-10.375 -2.0625,0 z m 4.0625,0 0,10.375 2.03125,0 0,-10.375 -2.03125,0 z m 4.03125,0 0,10.375 2.0625,0 0,-10.375 -2.0625,0 z m 4.0625,0 0,10.375 2.03125,0 0,-10.375 -2.03125,0 z m 4.03125,0 0,10.375 2.0625,0 0,-10.375 -2.0625,0 z m 4.0625,0 0,10.375 2.03125,0 0,-10.375 -2.03125,0 z m 4.03125,0 0,10.375 2.0625,0 0,-10.375 -2.0625,0 z m 4.0625,0 0,10.375 2.03125,0 0,-10.375 -2.03125,0 z m 4.03125,0 0,10.375 2.0625,0 0,-10.375 -2.0625,0 z m 4.0625,0 0,10.375 2,0 0.71875,-10.375 -2.71875,0 z m -40.5,12.28125 -13.3125,15.9375 0,9.5 34.5625,0 34.53125,0 0,-9.53125 -13.28125,-15.90625 -42.5,0 z"
                     style="fill:#69f0ae;fill-opacity:1;stroke:none"
                     inkscape:connector-curvature="0" />
                  <path
                     inkscape:connector-curvature="0"
                     id="path4570"
                     d="m 224.29687,874.93578 c -3.58647,0 -6.97286,1.39836 -9.96875,3.86415 l 0,37.08944 -6.8125,0 0,-28.37928 c -3.32236,6.30067 -5.34375,14.48345 -5.34375,23.43825 0,7.28547 1.34044,14.06545 3.625,19.73247 l 37.375,0 -0.25,-0.31673 c 2.20762,-5.60251 3.5,-12.26477 3.5,-19.41574 0,-19.8917 -9.90559,-36.01256 -22.125,-36.01256 z m -19.46875,58.15221 -1.0625,1.26693 -13.3125,15.93168 0,9.50199 34.5625,0 34.53125,0 0,-9.53366 -13.28125,-15.90001 -1.0625,-1.26693 -40.375,0 z"
                     style="fill:#fafafa;fill-opacity:1;stroke:none" />
                  <path
                     style="fill:#fafafa;fill-opacity:1;stroke:none"
                     d="m 494.29684,874.93578 c -3.58647,0 -6.97286,1.39836 -9.96875,3.86415 l 0,37.08944 -6.8125,0 0,-28.37928 c -3.32236,6.30067 -5.34375,14.48345 -5.34375,23.43825 0,7.28547 1.34044,14.06545 3.625,19.73247 l 37.375,0 -0.25,-0.31673 c 2.20762,-5.60251 3.5,-12.26477 3.5,-19.41574 0,-19.8917 -9.90559,-36.01256 -22.125,-36.01256 z m -19.46875,58.15221 -1.0625,1.26693 -13.3125,15.93168 0,9.50199 34.5625,0 34.53125,0 0,-9.53366 -13.28125,-15.90001 -1.0625,-1.26693 -40.375,0 z"
                     id="path4572"
                     inkscape:connector-curvature="0" />
                  <path
                     inkscape:connector-curvature="0"
                     id="path4574"
                     d="m 133.7659,874.93578 -0.0312,9.25265 -28.58852,28.13691 11.40417,12.09476 c 4.70572,-4.17916 9.48728,-4.90184 15.34093,-1.92633 -6.2758,6.27992 -13.52284,11.79368 -17.49679,19.86321 l 0.0624,17.43161 18.96528,0 30.99435,0 0.40617,-15.69477 c -0.8089,-6.11485 -5.10675,-9.58775 -8.84213,-13.48423 2.67088,-3.02034 5.63411,-5.7647 7.21744,-9.88424 2.08794,-4.39003 2.00165,-10.19239 0.84359,-16.7053 -1.82688,-7.17755 -7.00676,-12.35155 -11.65413,-17.74739 l -0.78111,-0.72632 0,13.42107 -2.53077,0 0,-15.82108 -2.28085,-2.17895 0,11.62107 -2.53078,0 0,-14.02108 -2.28083,-2.17895 0,11.5895 -2.49954,0 0,-12.85266 -5.71772,-0.18948 z m -2.62452,20.21058 4.03052,0 0,4.95791 -4.03052,0 0,-4.95791 z"
                     style="fill:#fafafa;fill-opacity:1;stroke:none" />
                  <path
                     style="fill:#fafafa;fill-opacity:1;stroke:none"
                     d="m 583.76589,874.93578 -0.0312,9.25265 -28.58852,28.13691 11.40417,12.09476 c 4.70572,-4.17916 9.48728,-4.90184 15.34093,-1.92633 -6.2758,6.27992 -13.52284,11.79368 -17.49679,19.86321 l 0.0624,17.43161 18.96528,0 30.99435,0 0.40617,-15.69477 c -0.8089,-6.11485 -5.10675,-9.58775 -8.84213,-13.48423 2.67088,-3.02034 5.63411,-5.7647 7.21744,-9.88424 2.08794,-4.39003 2.00165,-10.19239 0.84359,-16.7053 -1.82688,-7.17755 -7.00676,-12.35155 -11.65413,-17.74739 l -0.78111,-0.72632 0,13.42107 -2.53077,0 0,-15.82108 -2.28085,-2.17895 0,11.62107 -2.53078,0 0,-14.02108 -2.28083,-2.17895 0,11.5895 -2.49954,0 0,-12.85266 -5.71772,-0.18948 z m -2.62452,20.21058 4.03052,0 0,4.95791 -4.03052,0 0,-4.95791 z"
                     id="path4576"
                     inkscape:connector-curvature="0" />
                  <path
                     inkscape:connector-curvature="0"
                     id="path4578"
                     style="fill:#fafafa;fill-opacity:1;stroke:none"
                     d="m 314.98437,874.94034 c -2.59947,-0.0101 -6.05016,1.60386 -8.96875,3.28125 1.82015,3.06161 5.15188,5.125 8.96875,5.125 3.78301,0 7.10683,-2.01464 8.9375,-5.03125 -2.86716,-1.69506 -6.34868,-3.36492 -8.9375,-3.375 z m -10.625,4.25 c -2.32312,1.44746 -4.03125,2.71875 -4.03125,2.71875 l 3.84375,14.6875 10.8125,8.4375 10.8125,-8.4375 3.40625,-14.75 c 0,0 -1.52202,-1.16476 -3.65625,-2.53125 -2.17048,3.57203 -6.07756,5.96875 -10.5625,5.96875 -4.5353,0 -8.47019,-2.45479 -10.625,-6.09375 z m 0.375,19.96875 c -1.16456,1.07689 -2.14283,2.33387 -3.25,3.75 l -8.46875,10.65624 0,6.375 21.96875,0 0.0312,0 21.96875,0 0,-6.40625 -8.46875,-10.62499 -0.53125,-0.71875 c -0.82231,-1.11287 -1.75409,-2.11725 -2.78125,-3 l -3.65625,2.84375 -6.5625,5.09375 -6.5625,-5.09375 -3.6875,-2.875 z m -11.71875,22.90624 0.8125,10.375 2,0 0,-10.375 -2.8125,0 z m 4.8125,0 0,10.375 2.0625,0 0,-10.375 -2.0625,0 z m 4.0625,0 0,10.375 2.03125,0 0,-10.375 -2.03125,0 z m 4.03125,0 0,10.375 2.0625,0 0,-10.375 -2.0625,0 z m 4.0625,0 0,10.375 2.03125,0 0,-10.375 -2.03125,0 z m 4.03125,0 0,10.375 2.0625,0 0,-10.375 -2.0625,0 z m 4.0625,0 0,10.375 2.03125,0 0,-10.375 -2.03125,0 z m 4.03125,0 0,10.375 2.0625,0 0,-10.375 -2.0625,0 z m 4.0625,0 0,10.375 2.03125,0 0,-10.375 -2.03125,0 z m 4.03125,0 0,10.375 2.0625,0 0,-10.375 -2.0625,0 z m 4.0625,0 0,10.375 2,0 0.71875,-10.375 -2.71875,0 z m -40.5,12.28125 -13.3125,15.9375 0,9.5 34.5625,0 34.53125,0 0,-9.53125 -13.28125,-15.90625 -42.5,0 z m 21.21875,3.75 c 4.78404,0 8.65625,3.87223 8.65625,8.65625 0,4.78403 -3.87221,8.65625 -8.65625,8.65625 -4.78402,0 -8.65625,-3.87222 -8.65625,-8.65625 0,-4.78402 3.87223,-8.65625 8.65625,-8.65625 z m 0,1.34375 c -4.03224,0 -7.3125,3.28026 -7.3125,7.3125 0,4.03224 3.28026,7.3125 7.3125,7.3125 4.03224,0 7.3125,-3.28026 7.3125,-7.3125 0,-4.03224 -3.28026,-7.3125 -7.3125,-7.3125 z" />
                  <path
                     inkscape:connector-curvature="0"
                     style="fill:#fafafa;fill-opacity:1;stroke:none"
                     d="m 402.67184,874.94031 0,6.96875 -6.28125,0 0,4.625 6.28125,0 0,9.03125 c 0.71849,-0.13767 1.47313,-0.26872 2.3125,-0.375 0.78432,0.0141 1.55214,0.0875 2.3125,0.21875 l 0,-8.875 6.3125,0 0,-4.625 -6.3125,0 0,-6.96875 -4.625,0 z m 4.625,20.46875 0,2.09375 -4.625,0 0,-1.9375 c -3.18647,0.61056 -5.26721,1.52893 -6.875,2.71875 l 9.1875,7.15625 9.15625,-7.0625 c -2.0355,-1.49608 -4.36258,-2.54058 -6.84375,-2.96875 z m -12.5625,3.75 c -1.16456,1.07689 -2.14285,2.33387 -3.25,3.75 l -8.46875,10.65625 0,6.375 21.96875,0 0.0312,0 21.96875,0 0,-6.40625 -8.46875,-10.625 -0.53125,-0.71875 c -0.82233,-1.11287 -1.75411,-2.11725 -2.78125,-3 l -3.65625,2.84375 -6.5625,5.09375 -6.5625,-5.09375 -3.6875,-2.875 z m -11.71875,22.90625 0.8125,10.375 2,0 0,-10.375 -2.8125,0 z m 4.8125,0 0,10.375 2.0625,0 0,-10.375 -2.0625,0 z m 4.0625,0 0,10.375 2.03125,0 0,-10.375 -2.03125,0 z m 4.03125,0 0,10.375 2.0625,0 0,-10.375 -2.0625,0 z m 4.0625,0 0,10.375 2.03125,0 0,-10.375 -2.03125,0 z m 4.03125,0 0,10.375 2.0625,0 0,-10.375 -2.0625,0 z m 4.0625,0 0,10.375 2.03125,0 0,-10.375 -2.03125,0 z m 4.03125,0 0,10.375 2.0625,0 0,-10.375 -2.0625,0 z m 4.0625,0 0,10.375 2.03125,0 0,-10.375 -2.03125,0 z m 4.03125,0 0,10.375 2.0625,0 0,-10.375 -2.0625,0 z m 4.0625,0 0,10.375 2,0 0.71875,-10.375 -2.71875,0 z m -40.5,12.28125 -13.3125,15.9375 0,9.5 34.5625,0 34.53125,0 0,-9.53125 -13.28125,-15.90625 -42.5,0 z"
                     id="path4580" />
                  <path
                     inkscape:connector-curvature="0"
                     d="m 67.500005,808.33555 c 0,12.92334 -10.073598,23.39978 -22.499998,23.39978 -12.42641,0 -22.5,-10.47644 -22.5,-23.39978 0,-12.92334 10.07359,-23.39978 22.5,-23.39978 12.4264,0 22.499998,10.47644 22.499998,23.39978 z m 19.999988,61.45305 -42.499986,0 -42.4999995,0 21.2499895,-26.09982 21.25001,-26.09983 21.249998,26.09983 z"
                     style="fill:#fafafa;fill-opacity:1;stroke:none"
                     id="path4604" />
                  <path
                     id="path4606"
                     style="fill:#fafafa;fill-opacity:1;stroke:none"
                     d="m 697.49999,808.33555 c 0,12.92334 -10.07359,23.39978 -22.49999,23.39978 -12.42641,0 -22.5,-10.47644 -22.5,-23.39978 0,-12.92334 10.07359,-23.39978 22.5,-23.39978 12.4264,0 22.49999,10.47644 22.49999,23.39978 z m 19.99999,61.45305 -42.49998,0 -42.5,0 21.24999,-26.09982 L 675,817.58895 l 21.24999,26.09983 z"
                     inkscape:connector-curvature="0" />
                  <path
                     inkscape:connector-curvature="0"
                     d="m 607.49999,808.33555 c 0,12.92334 -10.07359,23.39978 -22.49999,23.39978 -12.42641,0 -22.5,-10.47644 -22.5,-23.39978 0,-12.92334 10.07359,-23.39978 22.5,-23.39978 12.4264,0 22.49999,10.47644 22.49999,23.39978 z m 19.99999,61.45305 -42.49998,0 -42.5,0 21.24999,-26.09982 L 585,817.58895 l 21.24999,26.09983 z"
                     style="fill:#fafafa;fill-opacity:1;stroke:none"
                     id="path4608" />
                  <path
                     id="path4610"
                     style="fill:#fafafa;fill-opacity:1;stroke:none"
                     d="m 517.49999,808.33555 c 0,12.92334 -10.07359,23.39978 -22.49999,23.39978 -12.42641,0 -22.5,-10.47644 -22.5,-23.39978 0,-12.92334 10.07359,-23.39978 22.5,-23.39978 12.4264,0 22.49999,10.47644 22.49999,23.39978 z m 19.99999,61.45305 -42.49998,0 -42.5,0 21.24999,-26.09982 L 495,817.58895 l 21.24999,26.09983 z"
                     inkscape:connector-curvature="0" />
                  <path
                     inkscape:connector-curvature="0"
                     d="m 427.49999,808.33555 c 0,12.92334 -10.07359,23.39978 -22.49999,23.39978 -12.42641,0 -22.5,-10.47644 -22.5,-23.39978 0,-12.92334 10.07359,-23.39978 22.5,-23.39978 12.4264,0 22.49999,10.47644 22.49999,23.39978 z m 19.99999,61.45305 -42.49998,0 -42.5,0 21.24999,-26.09982 L 405,817.58895 l 21.24999,26.09983 z"
                     style="fill:#fafafa;fill-opacity:1;stroke:none"
                     id="path4612" />
                  <path
                     id="path4614"
                     style="fill:#fafafa;fill-opacity:1;stroke:none"
                     d="m 337.49999,808.33555 c 0,12.92334 -10.07359,23.39978 -22.49999,23.39978 -12.42641,0 -22.5,-10.47644 -22.5,-23.39978 0,-12.92334 10.07359,-23.39978 22.5,-23.39978 12.4264,0 22.49999,10.47644 22.49999,23.39978 z m 19.99999,61.45305 -42.49998,0 -42.5,0 21.24999,-26.09982 L 315,817.58895 l 21.24999,26.09983 z"
                     inkscape:connector-curvature="0" />
                  <path
                     inkscape:connector-curvature="0"
                     d="m 247.49999,808.33555 c 0,12.92334 -10.07359,23.39978 -22.49999,23.39978 -12.42641,0 -22.5,-10.47644 -22.5,-23.39978 0,-12.92334 10.07359,-23.39978 22.5,-23.39978 12.4264,0 22.49999,10.47644 22.49999,23.39978 z m 19.99999,61.45305 -42.49998,0 -42.5,0 21.24999,-26.09982 L 225,817.58895 l 21.24999,26.09983 z"
                     style="fill:#fafafa;fill-opacity:1;stroke:none"
                     id="path4616" />
                  <path
                     id="path4618"
                     style="fill:#fafafa;fill-opacity:1;stroke:none"
                     d="m 157.5,808.33555 c 0,12.92334 -10.07359,23.39978 -22.49999,23.39978 -12.42641,0 -22.5,-10.47644 -22.5,-23.39978 0,-12.92334 10.07359,-23.39978 22.5,-23.39978 12.4264,0 22.49999,10.47644 22.49999,23.39978 z m 19.99999,61.45305 -42.49998,0 -42.500002,0 L 113.75,843.68878 135.00001,817.58895 156.25,843.68878 z"
                     inkscape:connector-curvature="0" />
                  <path
                     inkscape:connector-curvature="0"
                     style="fill:#69f0ae;fill-opacity:1;stroke:none"
                     d="m 15.984383,244.94031 0,57.375 58.0625,0 0,-57.375 -16.1875,0 0,29.21875 -7.750001,0 0,-29.21875 -10.1875,0 0,29.21875 -7.749999,0 0,-29.21875 -16.1875,0 z m 0.03125,59.40625 -5.5625,15.9375 0,9.5 34.562499,0 34.531251,0 0,-9.53125 -5.53125,-15.90625 -58,0 z"
                     id="path3251"
                     inkscape:export-xdpi="90"
                     inkscape:export-ydpi="90"
                     inkscape:export-filename="/home/oscar/projects/bamtang/prob4/images/torre-black.png" />
                  <path
                     inkscape:export-filename="/home/oscar/projects/bamtang/prob4/images/torre-black.png"
                     inkscape:export-ydpi="90"
                     inkscape:export-xdpi="90"
                     id="path3253"
                     d="m 15.984474,874.94031 0,57.375 58.062501,0 0,-57.375 -16.1875,0 0,29.21875 -7.75,0 0,-29.21875 -10.1875,0 0,29.21875 -7.750001,0 0,-29.21875 -16.1875,0 z m 0.0312,59.40625 -5.5625,15.9375 0,9.5 34.562501,0 34.53125,0 0,-9.53125 -5.53125,-15.90625 -58.000001,0 z"
                     style="fill:#fafafa;fill-opacity:1;stroke:none"
                     inkscape:connector-curvature="0" />
                  <path
                     inkscape:export-filename="/home/oscar/projects/bamtang/prob4/images/torre-black.png"
                     inkscape:export-ydpi="90"
                     inkscape:export-xdpi="90"
                     id="path3352"
                     d="m 645.98442,244.94031 0,57.375 58.0625,0 0,-57.375 -16.1875,0 0,29.21875 -7.75,0 0,-29.21875 -10.1875,0 0,29.21875 -7.75,0 0,-29.21875 -16.1875,0 z m 0.0312,59.40625 -5.5625,15.9375 0,9.5 34.5625,0 34.53125,0 0,-9.53125 -5.53125,-15.90625 -58,0 z"
                     style="fill:#69f0ae;fill-opacity:1;stroke:none"
                     inkscape:connector-curvature="0" />
                  <path
                     inkscape:connector-curvature="0"
                     style="fill:#fafafa;fill-opacity:1;stroke:none"
                     d="m 645.98449,874.94031 0,57.375 58.0625,0 0,-57.375 -16.1875,0 0,29.21875 -7.75,0 0,-29.21875 -10.1875,0 0,29.21875 -7.75,0 0,-29.21875 -16.1875,0 z m 0.0312,59.40625 -5.5625,15.9375 0,9.5 34.5625,0 34.53125,0 0,-9.53125 -5.53125,-15.90625 -58,0 z"
                     id="path3406"
                     inkscape:export-xdpi="90"
                     inkscape:export-ydpi="90"
                     inkscape:export-filename="/home/oscar/projects/bamtang/prob4/images/torre-black.png" />
                </g>
              </g>
            </g>
          </g>
        </g>
      </g>
    </g>
  </g>
</svg>
